<svg xmlns="http://www.w3.org/2000/svg" xmlns:xlink="http://www.w3.org/1999/xlink" width="500" zoomAndPan="magnify" viewBox="0 0 375 374.999991" height="500" preserveAspectRatio="xMidYMid meet" version="1.0"><defs><g/><clipPath id="id1"><path d="M 37.5 162 L 94.5 162 L 94.5 187.644531 L 37.5 187.644531 Z M 37.5 162 " clip-rule="nonzero"/></clipPath><clipPath id="id2"><path d="M 37.5 136.679688 L 94.5 136.679688 L 94.5 183 L 37.5 183 Z M 37.5 136.679688 " clip-rule="nonzero"/></clipPath></defs><rect x="-37.5" width="450" fill="#ffffff" y="-37.499999" height="449.999989" fill-opacity="1"/><rect x="-37.5" width="450" fill="#ffffff" y="-37.499999" height="449.999989" fill-opacity="1"/><rect x="-37.5" width="450" fill="#ffffff" y="-37.499999" height="449.999989" fill-opacity="1"/><g clip-path="url(#id1)"><path fill="#3e4780" d="M 94.492188 162.230469 C 94.492188 163.371094 94.21875 164.371094 93.671875 165.320312 L 82.484375 184.742188 C 81.390625 186.632812 79.371094 187.652344 77.1875 187.652344 L 54.8125 187.652344 C 52.625 187.652344 50.605469 186.582031 49.515625 184.6875 L 38.324219 165.394531 C 37.78125 164.445312 37.507812 163.371094 37.507812 162.230469 L 57.296875 162.230469 C 57.296875 162.394531 57.609375 163.140625 57.769531 163.421875 L 61.097656 169.242188 C 61.421875 169.804688 62.023438 170.050781 62.671875 170.050781 L 69.324219 170.050781 C 69.972656 170.050781 70.804688 169.523438 71.128906 168.960938 L 74.457031 163.242188 C 74.617188 162.960938 74.699219 162.394531 74.699219 162.230469 Z M 94.492188 162.230469 " fill-opacity="1" fill-rule="nonzero"/></g><g clip-path="url(#id2)"><path fill="#3a5ea6" d="M 57.527344 162.230469 L 37.507812 162.230469 C 37.507812 161.089844 37.78125 160.152344 38.324219 159.203125 L 49.515625 139.84375 C 50.605469 137.949219 52.625 136.644531 54.8125 136.644531 L 77.1875 136.644531 C 79.371094 136.644531 81.390625 137.898438 82.484375 139.792969 L 93.671875 159.269531 C 94.21875 160.21875 94.492188 161.089844 94.492188 162.230469 L 74.46875 162.230469 L 74.699219 162.230469 C 74.699219 161.902344 74.617188 161.691406 74.453125 161.410156 L 71.128906 155.734375 C 70.804688 155.171875 69.972656 154.570312 69.324219 154.570312 L 62.671875 154.570312 C 62.023438 154.570312 61.191406 155.121094 60.867188 155.683594 L 57.542969 161.421875 C 57.378906 161.703125 57.296875 162.230469 57.296875 162.230469 Z M 74.699219 162.230469 C 74.699219 162.394531 74.617188 162.960938 74.457031 163.242188 L 71.128906 168.960938 C 70.804688 169.523438 69.972656 170.050781 69.324219 170.050781 L 62.671875 170.050781 C 62.023438 170.050781 61.421875 169.804688 61.097656 169.242188 L 57.769531 163.421875 C 57.609375 163.140625 57.296875 162.394531 57.296875 162.230469 L 42.910156 162.230469 C 42.910156 163.046875 43.132812 164.046875 43.574219 164.8125 L 52.640625 180.488281 C 53.523438 182.023438 55.160156 182.925781 56.929688 182.925781 L 75.0625 182.925781 C 76.832031 182.925781 78.46875 182.074219 79.355469 180.539062 L 88.421875 164.765625 C 88.863281 164 89.085938 163.042969 89.085938 162.230469 Z M 74.699219 162.230469 " fill-opacity="1" fill-rule="nonzero"/></g><path fill="#2ea0d9" d="M 57.527344 162.230469 L 42.910156 162.230469 C 42.910156 161.414062 43.132812 160.605469 43.574219 159.835938 L 52.640625 144.207031 C 53.523438 142.671875 55.160156 141.699219 56.929688 141.699219 L 75.0625 141.699219 C 76.832031 141.699219 78.46875 142.621094 79.355469 144.15625 L 88.421875 159.851562 C 88.863281 160.621094 89.085938 161.414062 89.085938 162.230469 L 74.46875 162.230469 L 74.699219 162.230469 C 74.699219 161.902344 74.617188 161.691406 74.453125 161.410156 L 71.128906 155.734375 C 70.804688 155.171875 69.972656 154.570312 69.324219 154.570312 L 62.671875 154.570312 C 62.023438 154.570312 61.191406 155.121094 60.867188 155.683594 L 57.542969 161.421875 C 57.378906 161.703125 57.296875 162.230469 57.296875 162.230469 Z M 74.46875 162.230469 C 74.46875 162.394531 74.386719 162.960938 74.226562 163.242188 L 70.898438 168.914062 C 70.574219 169.476562 69.972656 169.726562 69.324219 169.726562 L 62.671875 169.726562 C 62.023438 169.726562 61.421875 169.527344 61.097656 168.964844 L 57.769531 163.167969 C 57.609375 162.886719 57.527344 162.394531 57.527344 162.230469 L 51.042969 162.230469 C 51.042969 162.71875 51.183594 163.441406 51.472656 163.9375 L 57.34375 174.050781 C 57.917969 175.046875 58.976562 175.589844 60.125 175.589844 L 71.871094 175.589844 C 73.019531 175.589844 74.078125 175.097656 74.652344 174.101562 L 80.523438 163.878906 C 80.8125 163.382812 80.953125 162.71875 80.953125 162.230469 Z M 74.46875 162.230469 " fill-opacity="1" fill-rule="nonzero"/><path fill="#a1cbdb" d="M 80.953125 162.230469 L 74.46875 162.230469 C 74.46875 161.902344 74.390625 161.675781 74.226562 161.394531 L 70.898438 155.703125 C 70.574219 155.140625 69.972656 154.734375 69.324219 154.734375 L 62.671875 154.734375 C 62.023438 154.734375 61.421875 155.089844 61.097656 155.648438 L 57.769531 161.421875 C 57.609375 161.703125 57.527344 161.902344 57.527344 162.230469 L 51.042969 162.230469 C 51.042969 161.742188 51.1875 161.179688 51.472656 160.683594 L 57.347656 150.5625 C 57.917969 149.566406 58.980469 148.867188 60.125 148.867188 L 71.871094 148.867188 C 73.019531 148.867188 74.078125 149.515625 74.652344 150.511719 L 80.523438 160.726562 C 80.8125 161.222656 80.953125 161.742188 80.953125 162.230469 Z M 80.953125 162.230469 " fill-opacity="1" fill-rule="nonzero"/><g fill="#303030" fill-opacity="1"><g transform="translate(107.174251, 177.714905)"><g><path d="M 32.507812 -21.886719 L 32.507812 -25.796875 L 5.332031 -25.796875 L 5.332031 0 L 9.71875 0 L 9.71875 -10.449219 L 29.839844 -10.449219 L 29.839844 -14.359375 L 9.71875 -14.359375 L 9.71875 -21.886719 Z M 32.507812 -21.886719 "/></g></g></g><g fill="#303030" fill-opacity="1"><g transform="translate(140.453279, 177.714905)"><g><path d="M 4.601562 0 L 8.902344 0 L 8.902344 -28.378906 L 4.601562 -28.378906 Z M 4.601562 0 "/></g></g></g><g fill="#303030" fill-opacity="1"><g transform="translate(153.997074, 177.714905)"><g><path d="M 4.988281 -23.648438 C 6.40625 -23.648438 7.09375 -24.25 7.09375 -25.324219 L 7.09375 -25.453125 C 7.09375 -26.574219 6.40625 -27.089844 4.988281 -27.089844 C 3.613281 -27.089844 2.925781 -26.574219 2.925781 -25.453125 L 2.925781 -25.28125 C 2.925781 -24.25 3.613281 -23.648438 4.988281 -23.648438 Z M 2.792969 0 L 7.09375 0 L 7.09375 -21.5 L 2.792969 -21.5 Z M 2.792969 0 "/></g></g></g><g fill="#303030" fill-opacity="1"><g transform="translate(163.886188, 177.714905)"><g><path d="M 19.5625 -21.929688 C 15.265625 -21.929688 11.351562 -20.726562 8.902344 -18.230469 L 8.902344 -21.5 L 4.601562 -21.5 L 4.601562 6.878906 L 8.902344 6.878906 L 8.902344 -3.226562 C 11.308594 -0.816406 15.222656 0.386719 19.820312 0.386719 C 27.390625 0.386719 33.367188 -2.792969 33.367188 -10.019531 L 33.367188 -11.222656 C 33.367188 -18.402344 27.5625 -21.929688 19.5625 -21.929688 Z M 28.980469 -10.019531 C 28.980469 -4.945312 25.109375 -3.484375 19.820312 -3.484375 C 14.75 -3.484375 8.902344 -4.558594 8.902344 -9.976562 L 8.902344 -11.265625 C 8.902344 -17.113281 14.835938 -18.058594 19.5625 -18.058594 C 25.152344 -18.058594 28.980469 -16.382812 28.980469 -11.222656 Z M 28.980469 -10.019531 "/></g></g></g><g fill="#303030" fill-opacity="1"><g transform="translate(200.260945, 177.714905)"><g><path d="M 27.476562 -28.378906 L 27.476562 -18.273438 C 25.066406 -20.683594 21.15625 -21.886719 16.554688 -21.886719 C 8.988281 -21.886719 3.011719 -18.703125 3.011719 -11.480469 L 3.011719 -10.277344 C 3.011719 -3.097656 8.816406 0.429688 16.8125 0.429688 C 21.113281 0.429688 25.023438 -0.773438 27.476562 -3.269531 L 27.476562 0 L 31.773438 0 L 31.773438 -28.378906 Z M 16.8125 -3.441406 C 11.222656 -3.441406 7.394531 -5.117188 7.394531 -10.277344 L 7.394531 -11.480469 C 7.394531 -16.554688 11.265625 -18.015625 16.554688 -18.015625 C 21.628906 -18.015625 27.476562 -16.941406 27.476562 -11.523438 L 27.476562 -10.234375 C 27.476562 -4.386719 21.542969 -3.441406 16.8125 -3.441406 Z M 16.8125 -3.441406 "/></g></g></g><g fill="#303030" fill-opacity="1"><g transform="translate(236.635703, 177.714905)"><g><path d="M 28.464844 0 L 33.496094 0 L 19.390625 -25.667969 L 19.433594 -25.796875 L 14.273438 -25.796875 L 14.359375 -25.667969 L 0.214844 0 L 5.246094 0 L 7.78125 -4.601562 L 25.925781 -4.601562 Z M 10.148438 -8.902344 L 16.855469 -21.113281 L 23.5625 -8.902344 Z M 10.148438 -8.902344 "/></g></g></g><g fill="#303030" fill-opacity="1"><g transform="translate(270.344697, 177.714905)"><g><path d="M 19.5625 -21.929688 C 15.265625 -21.929688 11.351562 -20.726562 8.902344 -18.230469 L 8.902344 -21.5 L 4.601562 -21.5 L 4.601562 6.878906 L 8.902344 6.878906 L 8.902344 -3.226562 C 11.308594 -0.816406 15.222656 0.386719 19.820312 0.386719 C 27.390625 0.386719 33.367188 -2.792969 33.367188 -10.019531 L 33.367188 -11.222656 C 33.367188 -18.402344 27.5625 -21.929688 19.5625 -21.929688 Z M 28.980469 -10.019531 C 28.980469 -4.945312 25.109375 -3.484375 19.820312 -3.484375 C 14.75 -3.484375 8.902344 -4.558594 8.902344 -9.976562 L 8.902344 -11.265625 C 8.902344 -17.113281 14.835938 -18.058594 19.5625 -18.058594 C 25.152344 -18.058594 28.980469 -16.382812 28.980469 -11.222656 Z M 28.980469 -10.019531 "/></g></g></g><g fill="#303030" fill-opacity="1"><g transform="translate(306.719466, 177.714905)"><g><path d="M 19.5625 -21.929688 C 15.265625 -21.929688 11.351562 -20.726562 8.902344 -18.230469 L 8.902344 -21.5 L 4.601562 -21.5 L 4.601562 6.878906 L 8.902344 6.878906 L 8.902344 -3.226562 C 11.308594 -0.816406 15.222656 0.386719 19.820312 0.386719 C 27.390625 0.386719 33.367188 -2.792969 33.367188 -10.019531 L 33.367188 -11.222656 C 33.367188 -18.402344 27.5625 -21.929688 19.5625 -21.929688 Z M 28.980469 -10.019531 C 28.980469 -4.945312 25.109375 -3.484375 19.820312 -3.484375 C 14.75 -3.484375 8.902344 -4.558594 8.902344 -9.976562 L 8.902344 -11.265625 C 8.902344 -17.113281 14.835938 -18.058594 19.5625 -18.058594 C 25.152344 -18.058594 28.980469 -16.382812 28.980469 -11.222656 Z M 28.980469 -10.019531 "/></g></g></g></svg>