<svg xmlns="http://www.w3.org/2000/svg" xmlns:xlink="http://www.w3.org/1999/xlink" width="500" zoomAndPan="magnify" viewBox="0 0 375 374.999991" height="500" preserveAspectRatio="xMidYMid meet" version="1.0"><defs><g/><clipPath id="id1"><path d="M 37.5 189 L 94.5 189 L 94.5 214.726562 L 37.5 214.726562 Z M 37.5 189 " clip-rule="nonzero"/></clipPath><clipPath id="id2"><path d="M 37.5 163.761719 L 94.5 163.761719 L 94.5 211 L 37.5 211 Z M 37.5 163.761719 " clip-rule="nonzero"/></clipPath></defs><g clip-path="url(#id1)"><path fill="#3e4780" d="M 94.492188 189.308594 C 94.492188 190.453125 94.21875 191.449219 93.671875 192.398438 L 82.484375 211.820312 C 81.390625 213.714844 79.371094 214.730469 77.1875 214.730469 L 54.8125 214.730469 C 52.625 214.730469 50.605469 213.664062 49.515625 211.769531 L 38.324219 192.472656 C 37.78125 191.527344 37.507812 190.453125 37.507812 189.308594 L 57.296875 189.308594 C 57.296875 189.472656 57.609375 190.222656 57.769531 190.503906 L 61.097656 196.320312 C 61.421875 196.882812 62.023438 197.132812 62.671875 197.132812 L 69.324219 197.132812 C 69.972656 197.132812 70.804688 196.605469 71.128906 196.042969 L 74.457031 190.324219 C 74.617188 190.042969 74.699219 189.472656 74.699219 189.308594 Z M 94.492188 189.308594 " fill-opacity="1" fill-rule="nonzero"/></g><g clip-path="url(#id2)"><path fill="#3a5ea6" d="M 57.527344 189.308594 L 37.507812 189.308594 C 37.507812 188.167969 37.78125 187.230469 38.324219 186.285156 L 49.515625 166.921875 C 50.605469 165.03125 52.625 163.726562 54.8125 163.726562 L 77.1875 163.726562 C 79.371094 163.726562 81.390625 164.976562 82.484375 166.871094 L 93.671875 186.351562 C 94.21875 187.296875 94.492188 188.167969 94.492188 189.308594 L 74.46875 189.308594 L 74.699219 189.308594 C 74.699219 188.984375 74.617188 188.769531 74.453125 188.488281 L 71.128906 182.8125 C 70.804688 182.25 69.972656 181.652344 69.324219 181.652344 L 62.671875 181.652344 C 62.023438 181.652344 61.191406 182.199219 60.867188 182.761719 L 57.542969 188.503906 C 57.378906 188.785156 57.296875 189.308594 57.296875 189.308594 Z M 74.699219 189.308594 C 74.699219 189.472656 74.617188 190.039062 74.457031 190.324219 L 71.128906 196.042969 C 70.804688 196.605469 69.972656 197.132812 69.324219 197.132812 L 62.671875 197.132812 C 62.023438 197.132812 61.421875 196.882812 61.097656 196.320312 L 57.769531 190.503906 C 57.609375 190.222656 57.296875 189.472656 57.296875 189.308594 L 42.910156 189.308594 C 42.910156 190.125 43.132812 191.125 43.574219 191.894531 L 52.640625 207.566406 C 53.523438 209.101562 55.160156 210.003906 56.929688 210.003906 L 75.0625 210.003906 C 76.832031 210.003906 78.46875 209.152344 79.355469 207.617188 L 88.421875 191.847656 C 88.863281 191.078125 89.085938 190.125 89.085938 189.308594 Z M 74.699219 189.308594 " fill-opacity="1" fill-rule="nonzero"/></g><path fill="#2ea0d9" d="M 57.527344 189.308594 L 42.910156 189.308594 C 42.910156 188.496094 43.132812 187.683594 43.574219 186.917969 L 52.640625 171.289062 C 53.523438 169.753906 55.160156 168.777344 56.929688 168.777344 L 75.0625 168.777344 C 76.832031 168.777344 78.46875 169.703125 79.355469 171.238281 L 88.421875 186.933594 C 88.863281 187.699219 89.085938 188.496094 89.085938 189.308594 L 74.46875 189.308594 L 74.699219 189.308594 C 74.699219 188.984375 74.617188 188.773438 74.453125 188.492188 L 71.128906 182.816406 C 70.804688 182.253906 69.972656 181.652344 69.324219 181.652344 L 62.671875 181.652344 C 62.023438 181.652344 61.191406 182.199219 60.867188 182.765625 L 57.542969 188.503906 C 57.378906 188.785156 57.296875 189.3125 57.296875 189.3125 L 57.527344 189.3125 Z M 74.46875 189.308594 C 74.46875 189.472656 74.386719 190.039062 74.226562 190.324219 L 70.898438 195.992188 C 70.574219 196.554688 69.972656 196.804688 69.324219 196.804688 L 62.671875 196.804688 C 62.023438 196.804688 61.421875 196.605469 61.097656 196.042969 L 57.769531 190.25 C 57.609375 189.96875 57.527344 189.472656 57.527344 189.308594 L 51.042969 189.308594 C 51.042969 189.796875 51.183594 190.519531 51.472656 191.019531 L 57.34375 201.132812 C 57.917969 202.125 58.976562 202.671875 60.125 202.671875 L 71.871094 202.671875 C 73.019531 202.671875 74.078125 202.175781 74.652344 201.183594 L 80.523438 190.957031 C 80.8125 190.460938 80.953125 189.796875 80.953125 189.308594 Z M 74.46875 189.308594 " fill-opacity="1" fill-rule="nonzero"/><path fill="#a1cbdb" d="M 80.953125 189.308594 L 74.46875 189.308594 C 74.46875 188.984375 74.390625 188.753906 74.226562 188.472656 L 70.898438 182.78125 C 70.574219 182.21875 69.972656 181.816406 69.324219 181.816406 L 62.671875 181.816406 C 62.023438 181.816406 61.421875 182.167969 61.097656 182.730469 L 57.769531 188.503906 C 57.609375 188.785156 57.527344 188.984375 57.527344 189.308594 L 51.042969 189.308594 C 51.042969 188.820312 51.1875 188.257812 51.472656 187.761719 L 57.347656 177.640625 C 57.917969 176.648438 58.980469 175.945312 60.125 175.945312 L 71.871094 175.945312 C 73.019531 175.945312 74.078125 176.59375 74.652344 177.589844 L 80.523438 187.804688 C 80.8125 188.304688 80.953125 188.820312 80.953125 189.308594 Z M 80.953125 189.308594 " fill-opacity="1" fill-rule="nonzero"/><g fill="#303030" fill-opacity="1"><g transform="translate(107.174251, 204.794912)"><g><path d="M 32.507812 -21.886719 L 32.507812 -25.796875 L 5.332031 -25.796875 L 5.332031 0 L 9.71875 0 L 9.71875 -10.449219 L 29.839844 -10.449219 L 29.839844 -14.359375 L 9.71875 -14.359375 L 9.71875 -21.886719 Z M 32.507812 -21.886719 "/></g></g></g><g fill="#303030" fill-opacity="1"><g transform="translate(140.453279, 204.794912)"><g><path d="M 4.601562 0 L 8.902344 0 L 8.902344 -28.378906 L 4.601562 -28.378906 Z M 4.601562 0 "/></g></g></g><g fill="#303030" fill-opacity="1"><g transform="translate(153.997074, 204.794912)"><g><path d="M 4.988281 -23.648438 C 6.40625 -23.648438 7.09375 -24.25 7.09375 -25.324219 L 7.09375 -25.453125 C 7.09375 -26.574219 6.40625 -27.089844 4.988281 -27.089844 C 3.613281 -27.089844 2.925781 -26.574219 2.925781 -25.453125 L 2.925781 -25.28125 C 2.925781 -24.25 3.613281 -23.648438 4.988281 -23.648438 Z M 2.792969 0 L 7.09375 0 L 7.09375 -21.5 L 2.792969 -21.5 Z M 2.792969 0 "/></g></g></g><g fill="#303030" fill-opacity="1"><g transform="translate(163.886188, 204.794912)"><g><path d="M 19.5625 -21.929688 C 15.265625 -21.929688 11.351562 -20.726562 8.902344 -18.230469 L 8.902344 -21.5 L 4.601562 -21.5 L 4.601562 6.878906 L 8.902344 6.878906 L 8.902344 -3.226562 C 11.308594 -0.816406 15.222656 0.386719 19.820312 0.386719 C 27.390625 0.386719 33.367188 -2.792969 33.367188 -10.019531 L 33.367188 -11.222656 C 33.367188 -18.402344 27.5625 -21.929688 19.5625 -21.929688 Z M 28.980469 -10.019531 C 28.980469 -4.945312 25.109375 -3.484375 19.820312 -3.484375 C 14.75 -3.484375 8.902344 -4.558594 8.902344 -9.976562 L 8.902344 -11.265625 C 8.902344 -17.113281 14.835938 -18.058594 19.5625 -18.058594 C 25.152344 -18.058594 28.980469 -16.382812 28.980469 -11.222656 Z M 28.980469 -10.019531 "/></g></g></g><g fill="#303030" fill-opacity="1"><g transform="translate(200.260945, 204.794912)"><g><path d="M 27.476562 -28.378906 L 27.476562 -18.273438 C 25.066406 -20.683594 21.15625 -21.886719 16.554688 -21.886719 C 8.988281 -21.886719 3.011719 -18.703125 3.011719 -11.480469 L 3.011719 -10.277344 C 3.011719 -3.097656 8.816406 0.429688 16.8125 0.429688 C 21.113281 0.429688 25.023438 -0.773438 27.476562 -3.269531 L 27.476562 0 L 31.773438 0 L 31.773438 -28.378906 Z M 16.8125 -3.441406 C 11.222656 -3.441406 7.394531 -5.117188 7.394531 -10.277344 L 7.394531 -11.480469 C 7.394531 -16.554688 11.265625 -18.015625 16.554688 -18.015625 C 21.628906 -18.015625 27.476562 -16.941406 27.476562 -11.523438 L 27.476562 -10.234375 C 27.476562 -4.386719 21.542969 -3.441406 16.8125 -3.441406 Z M 16.8125 -3.441406 "/></g></g></g><g fill="#303030" fill-opacity="1"><g transform="translate(236.635703, 204.794912)"><g><path d="M 28.464844 0 L 33.496094 0 L 19.390625 -25.667969 L 19.433594 -25.796875 L 14.273438 -25.796875 L 14.359375 -25.667969 L 0.214844 0 L 5.246094 0 L 7.78125 -4.601562 L 25.925781 -4.601562 Z M 10.148438 -8.902344 L 16.855469 -21.113281 L 23.5625 -8.902344 Z M 10.148438 -8.902344 "/></g></g></g><g fill="#303030" fill-opacity="1"><g transform="translate(270.344697, 204.794912)"><g><path d="M 19.5625 -21.929688 C 15.265625 -21.929688 11.351562 -20.726562 8.902344 -18.230469 L 8.902344 -21.5 L 4.601562 -21.5 L 4.601562 6.878906 L 8.902344 6.878906 L 8.902344 -3.226562 C 11.308594 -0.816406 15.222656 0.386719 19.820312 0.386719 C 27.390625 0.386719 33.367188 -2.792969 33.367188 -10.019531 L 33.367188 -11.222656 C 33.367188 -18.402344 27.5625 -21.929688 19.5625 -21.929688 Z M 28.980469 -10.019531 C 28.980469 -4.945312 25.109375 -3.484375 19.820312 -3.484375 C 14.75 -3.484375 8.902344 -4.558594 8.902344 -9.976562 L 8.902344 -11.265625 C 8.902344 -17.113281 14.835938 -18.058594 19.5625 -18.058594 C 25.152344 -18.058594 28.980469 -16.382812 28.980469 -11.222656 Z M 28.980469 -10.019531 "/></g></g></g><g fill="#303030" fill-opacity="1"><g transform="translate(306.719466, 204.794912)"><g><path d="M 19.5625 -21.929688 C 15.265625 -21.929688 11.351562 -20.726562 8.902344 -18.230469 L 8.902344 -21.5 L 4.601562 -21.5 L 4.601562 6.878906 L 8.902344 6.878906 L 8.902344 -3.226562 C 11.308594 -0.816406 15.222656 0.386719 19.820312 0.386719 C 27.390625 0.386719 33.367188 -2.792969 33.367188 -10.019531 L 33.367188 -11.222656 C 33.367188 -18.402344 27.5625 -21.929688 19.5625 -21.929688 Z M 28.980469 -10.019531 C 28.980469 -4.945312 25.109375 -3.484375 19.820312 -3.484375 C 14.75 -3.484375 8.902344 -4.558594 8.902344 -9.976562 L 8.902344 -11.265625 C 8.902344 -17.113281 14.835938 -18.058594 19.5625 -18.058594 C 25.152344 -18.058594 28.980469 -16.382812 28.980469 -11.222656 Z M 28.980469 -10.019531 "/></g></g></g></svg>